<svg width="40" height="40" viewBox="0 0 40 40" fill="none" xmlns="http://www.w3.org/2000/svg">
<path d="M25 8.33325H33.3333C34.2538 8.33325 35 9.07944 35 9.99992V26.6666C35 27.5871 34.2538 28.3333 33.3333 28.3333H26.0093C24.3375 28.3333 22.7763 29.1688 21.849 30.5598L20 33.3333V13.3333C20 10.5718 22.2386 8.33325 25 8.33325Z" stroke="#171740" stroke-width="2" stroke-linecap="round" stroke-linejoin="round"/>
<path d="M15 8.33325H6.66667C5.74619 8.33325 5 9.07944 5 9.99992V26.6666C5 27.5871 5.74619 28.3333 6.66667 28.3333H13.9907C15.6625 28.3333 17.2237 29.1688 18.151 30.5598L20 33.3333V13.3333C20 10.5718 17.7614 8.33325 15 8.33325Z" stroke="#171740" stroke-width="2" stroke-linecap="round" stroke-linejoin="round"/>
</svg>
