<svg width="40" height="40" viewBox="0 0 40 40" fill="none" xmlns="http://www.w3.org/2000/svg">
<path d="M26.6663 13.3333H33.333C34.2535 13.3333 34.9997 14.0794 34.9997 14.9999V33.3333L29.4442 28.7179C29.145 28.4693 28.7682 28.3333 28.3792 28.3333H14.9997C14.0792 28.3333 13.333 27.5871 13.333 26.6666V21.6666" stroke="#171740" stroke-width="2" stroke-linecap="round" stroke-linejoin="round"/>
<path d="M25 6.66675H6.66667C5.74619 6.66675 5 7.41294 5 8.33341V26.6667L10.5555 22.0514C10.8547 21.8028 11.2315 21.6667 11.6205 21.6667H25C25.9205 21.6667 26.6667 20.9206 26.6667 20.0001V8.33341C26.6667 7.41294 25.9205 6.66675 25 6.66675Z" stroke="#171740" stroke-width="2" stroke-linecap="round" stroke-linejoin="round"/>
</svg>
