<svg width="40" height="40" viewBox="0 0 40 40" fill="none" xmlns="http://www.w3.org/2000/svg">
<path d="M29.9997 35H9.99968C9.0792 35 8.33301 34.2538 8.33301 33.3333L8.33301 6.66667C8.33301 5.74619 9.0792 5 9.99968 5L22.6048 5C23.0691 5 23.5123 5.19366 23.8278 5.53432L31.2226 13.5208C31.5079 13.8288 31.6663 14.2332 31.6663 14.6531L31.6663 33.3333C31.6663 34.2538 30.9202 35 29.9997 35Z" stroke="#171740" stroke-width="2" stroke-linecap="round" stroke-linejoin="round"/>
<path d="M22.2373 27.2375L24.9999 30.0002" stroke="#171740" stroke-width="2" stroke-linecap="round" stroke-linejoin="round"/>
<path d="M19.1667 28.3333C21.4679 28.3333 23.3333 26.4679 23.3333 24.1667C23.3333 21.8655 21.4679 20 19.1667 20C16.8655 20 15 21.8655 15 24.1667C15 26.4679 16.8655 28.3333 19.1667 28.3333Z" stroke="#171740" stroke-width="2" stroke-linecap="round" stroke-linejoin="round"/>
<path d="M31.667 15L23.3337 15C22.4132 15 21.667 14.2538 21.667 13.3333L21.667 5" stroke="#171740" stroke-width="2" stroke-linecap="round" stroke-linejoin="round"/>
</svg>
