<svg width="40" height="40" viewBox="0 0 40 40" fill="none" xmlns="http://www.w3.org/2000/svg">
<path d="M28.3333 34.9999C30.1743 34.9999 31.6667 33.5075 31.6667 31.6666C31.6667 29.8256 30.1743 28.3333 28.3333 28.3333C26.4924 28.3333 25 29.8256 25 31.6666C25 33.5075 26.4924 34.9999 28.3333 34.9999Z" stroke="#171740" stroke-width="2" stroke-linecap="round" stroke-linejoin="round"/>
<path d="M13.3333 34.9999C15.1743 34.9999 16.6667 33.5075 16.6667 31.6666C16.6667 29.8256 15.1743 28.3333 13.3333 28.3333C11.4924 28.3333 10 29.8256 10 31.6666C10 33.5075 11.4924 34.9999 13.3333 34.9999Z" stroke="#171740" stroke-width="2" stroke-linecap="round" stroke-linejoin="round"/>
<path d="M5 5H6.98597C7.77187 5 8.45098 5.549 8.61564 6.31745L13.051 27.0159C13.2157 27.7843 13.8948 28.3333 14.6807 28.3333H28.3333" stroke="#171740" stroke-width="2" stroke-linecap="round" stroke-linejoin="round"/>
<path d="M10 10H32.7846C33.8937 10 34.6934 11.063 34.386 12.1286L31.5014 22.1286C31.2956 22.8421 30.6426 23.3333 29.9 23.3333H12.8846" stroke="#171740" stroke-width="2" stroke-linecap="round" stroke-linejoin="round"/>
</svg>
