<svg width="40" height="40" viewBox="0 0 40 40" fill="none" xmlns="http://www.w3.org/2000/svg">
<path d="M24.9764 14.1239L20.756 4.97404C20.4581 4.32831 19.5404 4.32831 19.2425 4.97404L15.0221 14.1239C14.9007 14.3871 14.6513 14.5683 14.3635 14.6024L4.35732 15.7888C3.65116 15.8725 3.36757 16.7453 3.88965 17.2281L11.2875 24.0695C11.5003 24.2662 11.5955 24.5594 11.5391 24.8437L9.5753 34.7268C9.43671 35.4242 10.1792 35.9637 10.7997 35.6163L19.5922 30.6947C19.8451 30.5531 20.1534 30.5531 20.4063 30.6947L29.1988 35.6163C29.8193 35.9637 30.5618 35.4242 30.4232 34.7268L28.4595 24.8437C28.403 24.5594 28.4982 24.2662 28.711 24.0695L36.1089 17.2281C36.631 16.7453 36.3474 15.8725 35.6412 15.7888L25.635 14.6024C25.3472 14.5683 25.0978 14.3871 24.9764 14.1239Z" fill="#171740" stroke="#171740" stroke-width="2" stroke-linecap="round" stroke-linejoin="round"/>
</svg>
