<svg width="40" height="40" viewBox="0 0 40 40" fill="none" xmlns="http://www.w3.org/2000/svg">
<path d="M11.6665 33.3333C11.6665 30.5718 15.3975 28.3333 19.9998 28.3333C24.6022 28.3333 28.3332 30.5718 28.3332 33.3333" stroke="#171740" stroke-width="2" stroke-linecap="round" stroke-linejoin="round"/>
<path d="M30 23.7493C32.9432 24.5208 35 26.2829 35 28.3332" stroke="#171740" stroke-width="2" stroke-linecap="round" stroke-linejoin="round"/>
<path d="M10 23.7493C7.05683 24.5208 5 26.2829 5 28.3332" stroke="#171740" stroke-width="2" stroke-linecap="round" stroke-linejoin="round"/>
<path d="M20 23.3333C22.7614 23.3333 25 21.0947 25 18.3333C25 15.5718 22.7614 13.3333 20 13.3333C17.2386 13.3333 15 15.5718 15 18.3333C15 21.0947 17.2386 23.3333 20 23.3333Z" stroke="#171740" stroke-width="2" stroke-linecap="round" stroke-linejoin="round"/>
<path d="M30.0002 17.0601C31.0231 16.1446 31.6668 14.8141 31.6668 13.3333C31.6668 10.5718 29.4283 8.33325 26.6668 8.33325C25.3862 8.33325 24.2181 8.81467 23.3335 9.60641" stroke="#171740" stroke-width="2" stroke-linecap="round" stroke-linejoin="round"/>
<path d="M10.0002 17.0601C8.97725 16.1446 8.3335 14.8141 8.3335 13.3333C8.3335 10.5718 10.5721 8.33325 13.3335 8.33325C14.6141 8.33325 15.7822 8.81467 16.6668 9.60641" stroke="#171740" stroke-width="2" stroke-linecap="round" stroke-linejoin="round"/>
</svg>
